<svg width="16" height="16" viewBox="0 0 16 16" fill="none" xmlns="http://www.w3.org/2000/svg">
<circle cx="8" cy="8" r="8" fill="#EEEEEE"/>
<path d="M12 10.0769C12 10.5867 11.602 11 11.1111 11H4.88889C4.398 11 4 10.5867 4 10.0769V5.92308C4 5.41331 4.398 5 4.88889 5H11.1111C11.602 5 12 5.41331 12 5.92308V10.0769Z" fill="#CCD6DD"/>
<path d="M6.65533 7.916L4.14155 10.5265C4.13555 10.5332 4.13333 10.5412 4.12822 10.5477C4.20378 10.6792 4.30911 10.7884 4.43578 10.8671C4.44222 10.8618 4.44978 10.8595 4.45578 10.8532L6.97 8.24231C7.05666 8.15208 7.05666 8.00623 6.97 7.916C6.88289 7.82577 6.74244 7.82577 6.65533 7.916ZM11.8718 10.5477C11.8671 10.5412 11.8644 10.5332 11.8584 10.5269L9.34466 7.916C9.25755 7.82577 9.11711 7.82577 9.03022 7.916C8.94333 8.00646 8.94333 8.15231 9.03022 8.24231L11.5442 10.8532C11.55 10.8592 11.558 10.8618 11.5642 10.8671C11.6911 10.7886 11.7962 10.6792 11.8718 10.5477Z" fill="#99AAB5"/>
<path d="M11.1111 5H4.88889C4.398 5 4 5.41331 4 5.92308V6.16077L7.22822 9.506C7.64933 9.94285 8.33667 9.94285 8.75822 9.506L12 6.15592V5.92308C12 5.41331 11.602 5 11.1111 5Z" fill="#99AAB5"/>
<path d="M11.1112 5H4.88893C4.53604 5 4.2336 5.21554 4.09004 5.525L7.37138 8.93277C7.71849 9.29323 8.2816 9.29323 8.62849 8.93277L11.91 5.525C11.7665 5.21554 11.4643 5 11.1112 5Z" fill="#E1E8ED"/>
</svg>
