<svg width="8" height="8" viewBox="0 0 8 8" fill="none" xmlns="http://www.w3.org/2000/svg">
<path d="M7.11111 0H0.888889C0.398 0 0 0.398 0 0.888889V5.77778H8V0.888889C8 0.398 7.602 0 7.11111 0Z" fill="#F4900C"/>
<path d="M2.22223 7.99999V1.55555L3.11112 0.666656H3.55556L4.44445 1.55555V7.99999H2.22223ZM7.33334 2.44443C7.33334 2.22221 7.11112 2.22221 7.11112 2.22221H5.55556C5.55556 2.22221 5.33334 2.22221 5.33334 2.44443V7.99999H7.33334V2.44443Z" fill="#485359"/>
<path d="M6.22222 3.77774C6.22222 3.55552 6 3.55552 6 3.55552H4.22222C4 3.55552 4 3.77774 4 3.77774V7.99997H6.22222V3.77774ZM2.44444 4.22219H1.33333V3.11108C1.33333 3.11108 1.33333 2.88885 1.11111 2.88885H0V7.11108C0 7.60197 0.398 7.99997 0.888889 7.99997H2.66667V4.44441C2.66667 4.44441 2.66667 4.22219 2.44444 4.22219ZM7.11111 5.55552C6.88889 5.55552 6.88889 5.77774 6.88889 5.77774V7.99997H7.11111C7.602 7.99997 8 7.60197 8 7.11108V5.55552H7.11111Z" fill="#292F33"/>
<path d="M1.77779 6.44444H2.22223V6.88889H1.77779V6.44444ZM1.77779 4.66667H2.22223V5.11111H1.77779V4.66667ZM1.33334 5.55556H1.77779V6H1.33334V5.55556ZM3.55557 2H4.00001V2.44444H3.55557V2ZM3.55557 2.88889H4.00001V3.33333H3.55557V2.88889ZM3.11112 3.77778H3.55557V4.22222H3.11112V3.77778ZM5.33334 4H5.77779V4.44444H5.33334V4ZM4.8889 4.88889H5.33334V5.33333H4.8889V4.88889ZM4.44445 6.22222H4.8889V6.66667H4.44445V6.22222ZM6.44445 2.66667H6.8889V3.11111H6.44445V2.66667ZM6.44445 3.55556H6.8889V4H6.44445V3.55556Z" fill="#FFCC4D"/>
</svg>
