<svg width="16" height="16" viewBox="0 0 16 16" fill="none" xmlns="http://www.w3.org/2000/svg">
<circle cx="8" cy="8" r="8" fill="#EEEEEE"/>
<path d="M12 6.66852C12 5.99428 11.3095 5.004 7.85718 5.004C4.40483 5.004 3.71436 5.99428 3.71436 6.66852C3.71436 6.67851 3.71873 6.68539 3.71942 6.69493C3.71666 6.73843 3.71436 6.78415 3.71436 6.83498C3.71436 7.41711 4.22968 7.66724 4.86514 7.66724C5.5006 7.66724 6.01592 7.41711 6.01592 6.83498C6.01592 6.78659 6.01109 6.74354 6.00419 6.70248C6.56232 6.62458 7.19018 6.55755 7.85718 6.55755C8.52417 6.55755 9.15204 6.62458 9.71017 6.70248C9.70327 6.74354 9.69843 6.78659 9.69843 6.83498C9.69843 7.41711 10.2135 7.66724 10.8492 7.66724C11.4849 7.66724 12 7.41711 12 6.83498C12 6.78504 11.9979 6.73976 11.9945 6.69715C11.9954 6.68694 12 6.6794 12 6.66852Z" fill="#BE1931"/>
<path d="M11.7547 9.22082C11.6437 8.992 11.223 8.2909 10.8414 7.66571C10.4828 7.07824 9.92859 6.55758 9.46828 6.55758V6.1137C9.46828 5.86869 9.26205 5.66983 9.00796 5.66983C8.75387 5.66983 8.54765 5.86869 8.54765 6.1137V6.55758H7.16671V6.1137C7.16671 5.86869 6.96049 5.66983 6.70639 5.66983C6.4523 5.66983 6.24608 5.86869 6.24608 6.1137V6.55758C5.78577 6.55758 5.23109 7.07935 4.87204 7.66726C4.49067 8.29201 4.07041 8.99222 3.9597 9.22082C3.82667 9.4958 3.71436 9.66469 3.71436 10.1086C3.71436 10.5524 4.12657 11.2182 4.63498 11.2182H11.0794C11.5878 11.2182 12 10.5524 12 10.1086C12 9.66469 11.8969 9.51466 11.7547 9.22082Z" fill="#DD2E44"/>
<path d="M8.32809 7.4049C8.32809 7.50522 8.11727 7.58645 7.85719 7.58645C7.59711 7.58645 7.38652 7.50522 7.38652 7.4049C7.38652 7.30459 7.59711 7.22336 7.85719 7.22336C8.11727 7.22336 8.32809 7.30459 8.32809 7.4049ZM7.19802 7.4049C7.19802 7.50522 6.98743 7.58645 6.72735 7.58645C6.46727 7.58645 6.25668 7.50522 6.25668 7.4049C6.25668 7.30459 6.4675 7.22336 6.72735 7.22336C6.9872 7.22336 7.19802 7.30459 7.19802 7.4049ZM9.4577 7.4049C9.4577 7.50522 9.24711 7.58645 8.98703 7.58645C8.72695 7.58645 8.51613 7.50522 8.51613 7.4049C8.51613 7.30459 8.72695 7.22336 8.98703 7.22336C9.24711 7.22336 9.4577 7.30459 9.4577 7.4049ZM8.42199 8.04053C8.42199 8.19122 8.16905 8.31307 7.85719 8.31307C7.54533 8.31307 7.29215 8.19122 7.29215 8.04053C7.29215 7.89028 7.5451 7.76821 7.85719 7.76821C8.16928 7.76821 8.42199 7.89006 8.42199 8.04053ZM9.74033 8.04053C9.74033 8.19122 9.48716 8.31307 9.17553 8.31307C8.86366 8.31307 8.61049 8.19122 8.61049 8.04053C8.61049 7.89028 8.86366 7.76821 9.17553 7.76821C9.48716 7.76821 9.74033 7.89006 9.74033 8.04053ZM7.10389 8.04053C7.10389 8.19122 6.85094 8.31307 6.53908 8.31307C6.22722 8.31307 5.97405 8.19122 5.97405 8.04053C5.97405 7.89028 6.22699 7.76821 6.53908 7.76821C6.85094 7.76821 7.10389 7.89006 7.10389 8.04053ZM8.61026 8.85748C8.61026 9.05855 8.27308 9.22079 7.85719 9.22079C7.44129 9.22079 7.10389 9.05855 7.10389 8.85748C7.10389 8.65707 7.44129 8.49439 7.85719 8.49439C8.27308 8.49461 8.61026 8.65707 8.61026 8.85748ZM10.3054 8.85748C10.3054 9.05833 9.96773 9.22079 9.55206 9.22079C9.13617 9.22079 8.79876 9.05855 8.79876 8.85748C8.79876 8.65707 9.13617 8.49439 9.55206 8.49439C9.96773 8.49461 10.3054 8.65707 10.3054 8.85748ZM6.91562 8.85748C6.91562 9.05833 6.57821 9.22079 6.16231 9.22079C5.74642 9.22079 5.40924 9.05855 5.40924 8.85748C5.40924 8.65707 5.74642 8.49439 6.16231 8.49439C6.57821 8.49461 6.91562 8.65707 6.91562 8.85748Z" fill="white"/>
</svg>
